HIERARCHY
ROOT Hips
{
	OFFSET -0.001795 -0.223333 0.028219
	CHANNELS 6 Xposition Yposition Zposition Zrotation Yrotation Xrotation 
	JOINT LeftUpLeg
	{
		OFFSET 0.069520 -0.091406 -0.006815
		CHANNELS 3 Zrotation Yrotation Xrotation
		JOINT LeftLeg
		{
			OFFSET 0.034277 -0.375199 -0.004496
			CHANNELS 3 Zrotation Yrotation Xrotation
			JOINT LeftFoot
			{
				OFFSET -0.013596 -0.397961 -0.043693
				CHANNELS 3 Zrotation Yrotation Xrotation
				JOINT LeftToe
				{
					OFFSET 0.026358 -0.055791 0.119288
					CHANNELS 3 Zrotation Yrotation Xrotation
					End Site
					{
						OFFSET 0.000000 0.000000 0.000000
					}
				}
			}
		}
	}
	JOINT RightUpLeg
	{
		OFFSET -0.067670 -0.090522 -0.004320
		CHANNELS 3 Zrotation Yrotation Xrotation
		JOINT RightLeg
		{
			OFFSET -0.038290 -0.382569 -0.008850
			CHANNELS 3 Zrotation Yrotation Xrotation
			JOINT RightFoot
			{
				OFFSET 0.015774 -0.398415 -0.042312
				CHANNELS 3 Zrotation Yrotation Xrotation
				JOINT RightToe
				{
					OFFSET -0.025372 -0.048144 0.123348
					CHANNELS 3 Zrotation Yrotation Xrotation
					End Site
					{
						OFFSET 0.000000 0.000000 0.000000
					}
				}
			}
		}
	}
	JOINT Spine
	{
		OFFSET -0.002533 0.108963 -0.026696
		CHANNELS 3 Zrotation Yrotation Xrotation
		JOINT Spine1
		{
			OFFSET 0.005487 0.135180 0.001092
			CHANNELS 3 Zrotation Yrotation Xrotation
			JOINT Spine2
			{
				OFFSET 0.001457 0.052922 0.025425
				CHANNELS 3 Zrotation Yrotation Xrotation
				JOINT Neck
				{
					OFFSET -0.002778 0.213870 -0.042857
					CHANNELS 3 Zrotation Yrotation Xrotation
					JOINT Head
					{
						OFFSET 0.005152 0.064970 0.051349
						CHANNELS 3 Zrotation Yrotation Xrotation
						End Site
						{
							OFFSET 0.000000 0.000000 0.000000
						}
					}
				}
				JOINT LeftShoulder
				{
					OFFSET 0.078845 0.121749 -0.034090
					CHANNELS 3 Zrotation Yrotation Xrotation
					JOINT LeftArm
					{
						OFFSET 0.090977 0.030469 -0.008868
						CHANNELS 3 Zrotation Yrotation Xrotation
						JOINT LeftForeArm
						{
							OFFSET 0.259612 -0.012772 -0.027456
							CHANNELS 3 Zrotation Yrotation Xrotation
							JOINT LeftHand
							{
								OFFSET 0.249234 0.008986 -0.001171
								CHANNELS 3 Zrotation Yrotation Xrotation
								End Site
								{
									OFFSET 0.000000 0.000000 0.000000
								}
							}
						}
					}
				}
				JOINT RightShoulder
				{
					OFFSET -0.081759 0.118833 -0.038615
					CHANNELS 3 Zrotation Yrotation Xrotation
					JOINT RightArm
					{
						OFFSET -0.096012 0.032551 -0.009143
						CHANNELS 3 Zrotation Yrotation Xrotation
						JOINT RightForeArm
						{
							OFFSET -0.253742 -0.013329 -0.021401
							CHANNELS 3 Zrotation Yrotation Xrotation
							JOINT RightHand
							{
								OFFSET -0.255298 0.007772 -0.005559
								CHANNELS 3 Zrotation Yrotation Xrotation
								End Site
								{
									OFFSET 0.000000 0.000000 0.000000
								}
							}
						}
					}
				}
			}
		}
	}
}
MOTION
Frames: 12
Frame Time: 0.050000
0.000000 0.937185 0.000000 -0.407701 -5.315078 0.843381 4.986140 -0.324663 -6.809636 -6.515496 1.056729 8.032309 6.508036 14.296462 7.772686 0.000000 0.000000 0.000000 1.472876 -0.206177 1.440771 3.885500 -0.309196 5.114669 -11.069242 -25.360109 7.258597 0.000000 0.000000 0.000000 -1.167291 -0.214900 8.191911 3.833767 -0.546573 -22.176129 0.708749 2.760716 31.169752 -1.548102 2.389555 -25.833590 0.000000 0.000000 0.000000 -29.569051 8.223608 -7.028822 -22.935909 22.673877 -7.159775 -86.349508 -20.295326 19.596523 0.000000 0.000000 0.000000 17.804063 -1.319120 -1.648176 20.767281 -30.201881 -6.898942 100.653548 17.536001 17.577594 0.000000 0.000000 0.000000 
0.000331 0.934814 -0.000309 -1.024627 -4.258973 1.698775 5.429217 -0.342868 -7.325903 -6.083251 0.913519 7.154645 6.209672 13.724376 6.562791 0.000000 0.000000 0.000000 2.325932 -0.223635 1.233232 3.865585 -0.332778 3.963539 -11.514456 -26.236052 7.118759 0.000000 0.000000 0.000000 -0.503501 -0.264651 7.806692 2.831849 -0.294993 -21.665132 2.183580 1.790554 29.593157 -2.405846 2.876607 -27.326354 0.000000 0.000000 0.000000 -29.691900 8.317623 -7.139301 -21.085578 22.624607 -6.399934 -87.718511 -18.346994 17.801296 0.000000 0.000000 0.000000 16.631050 -3.034044 -2.561044 19.258939 -31.605543 -6.383276 101.153481 16.920030 16.632861 0.000000 0.000000 0.000000 
0.000881 0.934294 -0.000161 -0.860767 -3.614469 1.663671 5.728260 -0.334149 -7.323266 -6.931394 1.050402 7.034806 5.883585 13.154471 6.383462 0.000000 0.000000 0.000000 2.129738 -0.189731 1.028849 4.033299 -0.358746 4.430606 -11.869958 -26.915412 7.153095 0.000000 0.000000 0.000000 0.055659 -0.312821 7.806808 3.490341 -0.419070 -22.141317 0.635533 2.227850 30.368089 -0.483258 1.907249 -27.681667 0.000000 0.000000 0.000000 -29.584479 8.596066 -7.577147 -18.930413 22.030715 -5.564709 -88.500497 -18.414795 17.706716 0.000000 0.000000 0.000000 15.939781 -3.437274 -2.525485 20.399428 -33.191606 -7.104351 98.971147 18.587085 18.343225 0.000000 0.000000 0.000000 
0.001366 0.932964 0.000526 -0.611705 -3.466862 2.264647 5.559534 -0.389958 -8.260788 -7.161642 1.105985 7.528827 5.917499 13.182664 6.062457 0.000000 0.000000 0.000000 1.624272 -0.118396 0.555284 4.460408 -0.418147 4.183305 -11.957121 -27.138934 6.687686 0.000000 0.000000 0.000000 -0.978035 -0.184589 6.377731 4.839934 -0.696443 -22.931350 0.159145 2.082636 31.698228 -0.598027 1.974161 -28.121059 0.000000 0.000000 0.000000 -31.330797 9.390503 -8.466373 -16.670408 22.084069 -4.786228 -87.624855 -17.739068 16.399648 0.000000 0.000000 0.000000 16.033695 -2.913391 -2.243816 18.522942 -33.793007 -6.409779 99.162749 17.381034 16.469933 0.000000 0.000000 0.000000 
0.002047 0.932647 0.001725 -0.343072 -3.707906 2.261352 4.981227 -0.445969 -8.757166 -6.771172 1.076544 8.571741 6.097813 13.490058 6.008261 0.000000 0.000000 0.000000 1.205942 -0.067218 0.226516 4.535082 -0.421304 4.878836 -11.922805 -27.096024 6.417422 0.000000 0.000000 0.000000 -0.813268 -0.192012 6.273078 5.029084 -0.853380 -21.533250 -0.729770 2.560973 30.340124 -0.336893 1.850573 -27.162643 0.000000 0.000000 0.000000 -31.162296 9.576883 -8.742751 -15.574157 21.614423 -4.297569 -88.141208 -19.128270 17.917742 0.000000 0.000000 0.000000 16.325968 -2.997716 -2.303019 17.918861 -32.660286 -5.946353 97.747401 18.328020 17.353063 0.000000 0.000000 0.000000 
0.002831 0.932256 0.003197 0.077296 -4.037896 2.355576 4.446166 -0.479437 -8.717967 -6.779225 1.085798 8.496137 6.259014 13.769772 6.027838 0.000000 0.000000 0.000000 0.622262 -0.058094 0.339304 4.561133 -0.420997 4.601795 -11.784559 -26.855456 6.039853 0.000000 0.000000 0.000000 -1.149187 -0.150568 5.727631 4.616029 -0.717186 -21.974973 -0.501030 2.693594 31.087303 -0.027167 1.676655 -27.771901 0.000000 0.000000 0.000000 -31.174119 9.560649 -8.665676 -14.392977 20.937020 -3.855927 -88.497052 -19.152202 17.871626 0.000000 0.000000 0.000000 16.492182 -3.003852 -2.315803 17.961001 -32.499744 -5.977999 97.283287 18.377282 17.205594 0.000000 0.000000 0.000000 
0.003627 0.932684 0.004483 0.070562 -4.467171 2.501877 4.497328 -0.470847 -8.709156 -6.990729 1.138392 8.413543 6.426716 14.071795 6.235099 0.000000 0.000000 0.000000 0.602369 -0.014366 -0.089571 4.377697 -0.385671 5.177034 -11.639753 -26.560259 6.075458 0.000000 0.000000 0.000000 -0.820463 -0.163036 5.438297 4.648785 -0.776318 -21.394534 -0.950940 3.061134 30.320182 0.426554 1.424721 -27.514170 0.000000 0.000000 0.000000 -31.436473 9.046545 -8.416763 -12.705548 20.803019 -3.245629 -89.007050 -19.318360 18.014882 0.000000 0.000000 0.000000 17.466270 -2.901571 -2.358200 16.650311 -31.879195 -5.328162 96.615405 19.259167 17.966386 0.000000 0.000000 0.000000 
0.004491 0.932771 0.005474 0.078046 -5.017834 2.753008 4.443681 -0.472192 -8.765942 -7.070083 1.164355 8.235766 6.676784 14.506254 6.361747 0.000000 0.000000 0.000000 0.546574 0.038824 -0.605942 4.194988 -0.347025 5.659913 -11.444065 -26.183592 5.945751 0.000000 0.000000 0.000000 -0.784188 -0.157433 5.222717 4.682323 -0.782611 -21.552566 -1.094643 3.054586 30.328249 0.985451 1.070512 -28.146883 0.000000 0.000000 0.000000 -31.013541 8.858123 -8.030120 -11.602722 20.798262 -2.874890 -90.158688 -18.978226 17.879182 0.000000 0.000000 0.000000 17.751826 -2.879951 -2.459809 15.812389 -31.171336 -4.915039 96.620943 19.019832 17.459294 0.000000 0.000000 0.000000 
0.005499 0.933107 0.006254 -0.110158 -5.323568 3.148847 4.393243 -0.480944 -8.897787 -6.778731 1.100549 7.880527 6.838795 14.785609 6.423987 0.000000 0.000000 0.000000 0.663483 0.088168 -1.135944 4.133253 -0.330289 5.895329 -11.314860 -25.929302 6.078917 0.000000 0.000000 0.000000 -0.663726 -0.150356 4.774640 4.958951 -0.861909 -21.486591 -1.231073 2.855418 30.121919 1.565724 0.670846 -28.221842 0.000000 0.000000 0.000000 -31.135753 8.679388 -7.777449 -10.607225 20.584046 -2.525005 -90.568984 -18.527555 17.420116 0.000000 0.000000 0.000000 17.968446 -2.747827 -2.513512 14.803130 -30.706758 -4.456278 95.550226 18.800269 16.633834 0.000000 0.000000 0.000000 
0.006626 0.933226 0.006890 -0.133983 -5.894347 3.462420 4.251755 -0.493789 -9.060184 -6.679077 1.091744 7.735139 7.116357 15.263448 6.560543 0.000000 0.000000 0.000000 0.638208 0.160022 -1.844019 4.306866 -0.324415 7.601626 -10.754916 -24.964513 3.965383 0.000000 0.000000 0.000000 -0.568863 -0.142413 4.384123 5.131287 -0.907764 -21.573951 -1.499981 2.659287 30.202771 1.939206 0.376916 -28.571290 0.000000 0.000000 0.000000 -31.024300 8.878550 -7.657132 -9.955246 20.580542 -2.308767 -90.340646 -18.681345 17.474095 0.000000 0.000000 0.000000 18.022761 -2.456089 -2.497431 14.363273 -30.478944 -4.266932 94.416484 18.539674 15.778445 0.000000 0.000000 0.000000 
0.007644 0.933168 0.007503 -0.321967 -6.602608 3.567168 4.414129 -0.467679 -8.969715 -6.803585 1.132855 7.613944 7.445504 15.823464 6.607815 0.000000 0.000000 0.000000 0.536096 0.174775 -1.981747 4.358272 -0.311491 8.095868 -10.015586 -23.475938 3.038084 0.000000 0.000000 0.000000 -0.348406 -0.147830 4.169695 5.126163 -0.913470 -21.658254 -1.581890 2.585674 30.192744 2.420306 0.007816 -28.565283 0.000000 0.000000 0.000000 -30.617059 9.073520 -7.500190 -10.246735 20.706631 -2.417831 -89.382731 -18.548649 17.143252 0.000000 0.000000 0.000000 18.198911 -2.838060 -2.864476 13.539536 -30.109475 -3.911766 93.571385 17.813401 14.487082 0.000000 0.000000 0.000000 
0.008449 0.933006 0.008113 -0.547721 -7.378992 3.672161 4.490964 -0.437858 -8.656492 -6.703710 1.115756 7.143340 7.812525 16.449179 6.598091 0.000000 0.000000 0.000000 0.477358 0.179850 -2.037322 3.904319 -0.236451 7.545438 -9.274842 -21.964382 3.716183 0.000000 0.000000 0.000000 -0.193930 -0.149187 3.962759 5.223162 -0.947076 -21.721622 -1.635155 2.373913 29.904769 2.947836 -0.412239 -28.581400 0.000000 0.000000 0.000000 -30.682426 9.595359 -7.619462 -10.119618 20.846988 -2.377858 -88.008549 -18.101192 16.366194 0.000000 0.000000 0.000000 18.374175 -2.918121 -3.123231 13.027223 -30.278964 -3.721797 92.573669 17.406764 13.572206 0.000000 0.000000 0.000000 
